<svg width="48" height="40" viewBox="0 0 48 40" fill="none" xmlns="http://www.w3.org/2000/svg">
<path fill-rule="evenodd" clip-rule="evenodd" d="M23.1756 0.961177C22.2359 2.14376 21.9062 2.72792 21.8557 3.30031C21.8103 3.81545 22.0196 4.22761 22.5414 4.65059C22.7226 4.79757 22.871 4.93686 22.871 4.96024C22.871 4.98353 22.7693 5.02392 22.6451 5.04988C22.5209 5.07592 22.2114 5.23435 21.9576 5.40188L21.8617 5.46512C21.6392 5.61196 21.3511 5.61422 21.1263 5.4709C20.6119 5.1429 19.5448 4.74008 18.8978 4.62965C18.1338 4.49914 16.7552 4.51678 15.8698 4.66839C14.921 4.83082 14.3063 5.03129 12.2219 5.85827C10.6915 6.46533 10.5326 6.51239 10.386 6.40173C9.64352 5.84078 8.38512 5.97569 7.70509 6.68918C7.47355 6.93208 7.41511 7.07624 7.38428 7.48C7.32997 8.19247 7.63752 8.66275 8.35317 8.96149C9.31154 9.36149 10.1242 9.11451 10.9373 8.17608C11.1136 7.97247 14.3808 6.67318 15.5042 6.35984C17.3912 5.83349 19.0215 6.00596 20.2397 6.86078C20.661 7.15639 20.6625 7.15929 20.6803 7.70165C20.7133 8.71835 21.4645 9.67137 22.5752 10.106C23.0325 10.285 23.2294 10.3137 23.9986 10.3137C24.7678 10.3137 24.9647 10.285 25.422 10.106C26.5327 9.67137 27.2839 8.71835 27.3169 7.70165C27.3347 7.15929 27.3362 7.15639 27.7574 6.86078C28.9774 6.00471 30.6027 5.83373 32.5026 6.36157C32.9677 6.49082 34.1364 6.91231 35.0995 7.29827C36.0628 7.68424 36.8928 8 36.944 8C36.9952 8 37.0895 8.10549 37.1535 8.23443C37.4293 8.79035 38.4085 9.25051 39.0646 9.13263C40.1276 8.94165 40.6794 8.35255 40.6129 7.48C40.5821 7.07624 40.5236 6.93208 40.2921 6.68918C39.6121 5.97569 38.3537 5.84078 37.6111 6.40173C37.4646 6.51239 37.3057 6.46533 35.7753 5.85827C33.6909 5.03129 33.0762 4.83082 32.1274 4.66839C31.242 4.51678 29.8634 4.49914 29.0994 4.62965C28.4531 4.74 27.3854 5.14282 26.8725 5.46996C26.648 5.61305 26.3609 5.61302 26.1364 5.46989L26.0738 5.42996C25.8369 5.27898 25.5373 5.11773 25.4081 5.07161C25.2789 5.02557 25.1558 4.97757 25.1347 4.96502C25.1134 4.95247 25.2513 4.81647 25.4408 4.66275C26.2277 4.02494 26.3532 3.3178 25.8441 2.39255C25.5789 1.91067 24.1052 0 23.9986 0C23.966 0 23.5957 0.432549 23.1756 0.961177ZM8.80694 10.3907C8.64306 10.4492 8.46123 10.5714 8.40298 10.6623C8.31615 10.7976 6.9355 13.8346 2.27711 24.1373C2.16373 24.3879 1.91408 24.549 1.63894 24.549H1.06955C0.507816 24.549 0.0278348 24.5766 0.0028397 24.6104C-0.0221554 24.644 0.120674 24.9615 0.320165 25.3158C1.36714 27.1747 3.408 28.7843 5.6273 29.5012C7.86887 30.2252 10.591 30.2233 12.7664 29.4962C15.0404 28.7362 17.0646 27.142 18.0796 25.3119C18.5058 24.5434 18.5544 24.5936 17.3424 24.549C16.6898 24.525 16.1071 24.1335 15.8382 23.5385L13.3709 18.0784C11.7725 14.5412 10.3552 11.4072 10.2213 11.114C9.89902 10.4083 9.43003 10.1685 8.80694 10.3907ZM38.3998 10.3911C38.2188 10.4568 38.0369 10.6068 37.9516 10.7606C37.8726 10.9031 36.438 14.0549 34.7636 17.7647L32.1575 23.5387C31.889 24.1336 31.3067 24.525 30.6544 24.549C29.4429 24.5936 29.4914 24.5434 29.9176 25.3119C30.8966 27.0773 32.9008 28.6896 35.0476 29.4386C36.1808 29.834 37.0233 29.9763 38.4694 30.0163C39.5903 30.0474 39.9923 30.0264 40.7358 29.8981C41.8376 29.7081 43.0395 29.3083 43.9797 28.8192C44.8934 28.3439 46.2081 27.2955 46.8257 26.5498C47.3398 25.929 48.0716 24.7146 47.9944 24.6104C47.9694 24.5766 47.4894 24.549 46.9276 24.549H46.3583C46.0831 24.549 45.8335 24.3879 45.7201 24.1373C41.0611 13.8335 39.681 10.7976 39.594 10.662C39.5003 10.5158 38.9769 10.2693 38.7778 10.2776C38.7374 10.2793 38.5673 10.3304 38.3998 10.3911ZM20.5572 12.606C20.6514 13.1801 21.0917 13.8791 21.6343 14.3162C21.9403 14.5626 22.1182 14.9343 22.1183 15.3272L22.1188 23.7464L22.1192 32.4098C22.1193 32.6368 21.979 32.8402 21.7669 32.9209C21.139 33.1599 20.3775 33.6245 19.9022 34.0585C19.1529 34.7428 18.6974 35.5841 18.5005 36.6471C18.4689 36.8175 18.3203 36.9413 18.1469 36.9414L16.4066 36.9429C14.6249 36.9444 14.3195 36.9629 13.9912 37.0894C13.148 37.4142 12.9105 37.8551 12.9105 39.0955C12.9105 39.5951 13.3155 40 13.815 40H23.9986H34.1822C34.6817 40 35.0866 39.5951 35.0866 39.0955C35.0866 37.8551 34.8492 37.4142 34.006 37.0894C33.6777 36.9629 33.3723 36.9444 31.5906 36.9429L29.8503 36.9414C29.6769 36.9413 29.5283 36.8175 29.4967 36.6471C29.2998 35.5841 28.8443 34.7428 28.095 34.0585C27.6197 33.6245 26.8582 33.1599 26.2303 32.9209C26.0182 32.8402 25.8779 32.6368 25.8779 32.4098L25.8784 23.7464L25.8789 15.3272C25.8789 14.9343 26.0569 14.5626 26.3629 14.3162C26.9055 13.8791 27.3458 13.1801 27.44 12.606C27.4719 12.4118 27.322 12.2353 27.1252 12.2353H23.9986H20.872C20.6751 12.2353 20.5253 12.4118 20.5572 12.606ZM11.6458 18.6285C12.9728 21.5613 14.1156 24.0932 14.1852 24.2549C14.245 24.3941 14.143 24.549 13.9915 24.549H9.19549H4.6594C4.38699 24.549 4.20509 24.2682 4.31647 24.0196C6.07571 20.0923 9.18619 13.2574 9.20648 13.2744C9.22105 13.2864 10.3187 15.6958 11.6458 18.6285ZM41.3734 18.9066L42.8665 22.21C43.3559 23.2926 42.5704 24.5208 41.3823 24.5307C39.9942 24.5421 37.6968 24.5421 36.2767 24.5307C35.0615 24.5208 34.2578 23.2645 34.7584 22.1571L36.2387 18.8823C37.6378 15.7871 38.7956 13.2657 38.8116 13.2791C38.8276 13.2924 39.9804 15.8248 41.3734 18.9066Z" fill="#543D1D"/>
</svg>
