<svg width="25" height="24" viewBox="0 0 25 24" fill="none" xmlns="http://www.w3.org/2000/svg">
<g clip-path="url(#clip0_1384_1056)">
<path fill-rule="evenodd" clip-rule="evenodd" d="M20.9369 3.58757C19.8405 2.48392 18.5359 1.60882 17.0989 1.01295C15.6618 0.417081 14.1208 0.112295 12.5651 0.116249C6.04175 0.116249 0.731277 5.4254 0.72864 11.9514C0.72864 14.0371 1.27313 16.0727 2.30807 17.8684L0.629761 24.0002L6.90397 22.3535C8.63949 23.2983 10.5839 23.7936 12.5599 23.7945H12.5651C19.0872 23.7945 24.3977 18.4854 24.4003 11.9593C24.4048 10.4043 24.101 8.86375 23.5066 7.42679C22.9121 5.98984 22.0387 4.68496 20.9369 3.58757ZM12.5651 21.7972H12.5612C10.7992 21.7973 9.0696 21.3233 7.55394 20.4247L7.19534 20.2111L3.47221 21.1881L4.46495 17.5585L4.2316 17.1867C3.24648 15.6184 2.72499 13.8035 2.72732 11.9514C2.72995 6.52757 7.1426 2.11493 12.5691 2.11493C13.8614 2.11205 15.1415 2.36553 16.3353 2.86067C17.529 3.35582 18.6127 4.08281 19.5236 4.99956C20.4394 5.91194 21.1652 6.99678 21.6592 8.19138C22.1532 9.38597 22.4056 10.6666 22.4016 11.9593C22.399 17.3832 17.9864 21.7972 12.5651 21.7972ZM17.9613 14.4287C17.6647 14.2797 16.2118 13.5651 15.9402 13.4663C15.6699 13.3674 15.4735 13.3186 15.2757 13.6139C15.078 13.9092 14.5111 14.575 14.3384 14.7728C14.1657 14.9705 13.993 14.9943 13.6976 14.8466C13.4023 14.6989 12.4491 14.3865 11.3193 13.3792C10.4399 12.5948 9.84662 11.6271 9.67391 11.3305C9.5012 11.0338 9.65545 10.8743 9.80443 10.7266C9.93759 10.5948 10.0997 10.3812 10.2474 10.2085C10.3951 10.0358 10.4438 9.9132 10.5427 9.71544C10.6416 9.51768 10.5928 9.34497 10.5177 9.19731C10.4438 9.04833 9.85189 7.59283 9.60535 7.00088C9.36672 6.42738 9.12282 6.50384 8.94089 6.49593C8.75246 6.48823 8.56388 6.48471 8.3753 6.48539C8.22534 6.48921 8.07778 6.52397 7.94189 6.58749C7.806 6.65102 7.68469 6.74193 7.58558 6.85453C7.31399 7.15117 6.55065 7.86574 6.55065 9.32124C6.55065 10.7767 7.61063 12.1835 7.75829 12.3812C7.90595 12.579 9.84398 15.5651 12.8104 16.8466C13.517 17.1512 14.0681 17.3331 14.4966 17.4702C15.2046 17.6956 15.8492 17.6627 16.3595 17.5875C16.9277 17.5032 18.109 16.873 18.3555 16.1821C18.602 15.4913 18.602 14.8993 18.5282 14.7754C18.4544 14.6515 18.2553 14.5763 17.9613 14.4287Z" fill="#F5F6F7"/>
</g>
<defs>
<clipPath id="clip0_1384_1056">
<rect width="24" height="24" fill="white" transform="translate(0.5)"/>
</clipPath>
</defs>
</svg>
