<svg width="40" height="40" viewBox="0 0 40 40" fill="none" xmlns="http://www.w3.org/2000/svg">
<path d="M25.5 14.5002H25.51M15 10H25C27.7614 10 30 12.2386 30 15V25C30 27.7614 27.7614 30 25 30H15C12.2386 30 10 27.7614 10 25V15C10 12.2386 12.2386 10 15 10ZM23.9999 19.3703C24.1234 20.2028 23.9812 21.0531 23.5937 21.8001C23.2062 22.5471 22.5931 23.1529 21.8416 23.5313C21.0901 23.9097 20.2384 24.0414 19.4077 23.9077C18.5771 23.774 17.8097 23.3817 17.2148 22.7866C16.6199 22.1915 16.2277 21.4239 16.094 20.5929C15.9604 19.762 16.092 18.9101 16.4703 18.1583C16.8485 17.4066 17.4541 16.7933 18.2009 16.4057C18.9477 16.0181 19.7977 15.8759 20.6299 15.9993C21.4789 16.1252 22.2648 16.5209 22.8716 17.128C23.4785 17.735 23.8741 18.5212 23.9999 19.3703Z" stroke="#F5EFE6" stroke-width="1.5" stroke-linecap="round" stroke-linejoin="round"/>
<rect x="0.25" y="0.25" width="39.5" height="39.5" stroke="url(#paint0_linear_1402_510)" stroke-width="0.5"/>
<defs>
<linearGradient id="paint0_linear_1402_510" x1="49" y1="-9" x2="-11.5" y2="50.5" gradientUnits="userSpaceOnUse">
<stop stop-color="#E6DBCC"/>
<stop offset="0.510417" stop-color="#E6DBCC" stop-opacity="0.1"/>
<stop offset="1" stop-color="#E6DBCC"/>
</linearGradient>
</defs>
</svg>
