<svg width="40" height="40" viewBox="0 0 40 40" fill="none" xmlns="http://www.w3.org/2000/svg">
<g clip-path="url(#clip0_1402_518)">
<path fill-rule="evenodd" clip-rule="evenodd" d="M27.0308 12.9895C26.1171 12.0698 25.03 11.3405 23.8324 10.844C22.6349 10.3474 21.3507 10.0934 20.0543 10.0967C14.6181 10.0967 10.1928 14.521 10.1906 19.9594C10.1906 21.6974 10.6443 23.3938 11.5067 24.8901L10.1082 30L15.3367 28.6278C16.7829 29.4151 18.4032 29.8279 20.0499 29.8286H20.0543C25.4894 29.8286 29.9148 25.4043 29.917 19.966C29.9207 18.6701 29.6675 17.3863 29.1721 16.1888C28.6768 14.9914 27.9489 13.904 27.0308 12.9895ZM20.0543 28.1641H20.051C18.5827 28.1643 17.1414 27.7692 15.8783 27.0204L15.5795 26.8424L12.4769 27.6566L13.3041 24.6319L13.1097 24.3221C12.2888 23.0152 11.8542 21.5027 11.8561 19.9594C11.8583 15.4395 15.5355 11.7623 20.0576 11.7623C21.1346 11.7599 22.2013 11.9711 23.1961 12.3837C24.1909 12.7964 25.0939 13.4022 25.853 14.1661C26.6162 14.9265 27.2211 15.8305 27.6327 16.826C28.0444 17.8215 28.2547 18.8887 28.2514 19.966C28.2492 24.4858 24.572 28.1641 20.0543 28.1641ZM24.5511 22.0237C24.3039 21.8996 23.0932 21.3041 22.8669 21.2217C22.6416 21.1393 22.4779 21.0987 22.3131 21.3448C22.1483 21.5909 21.6759 22.1457 21.532 22.3105C21.3881 22.4753 21.2441 22.4951 20.998 22.372C20.7519 22.249 19.9576 21.9886 19.0161 21.1492C18.2833 20.4955 17.7889 19.6891 17.6449 19.4419C17.501 19.1947 17.6296 19.0618 17.7537 18.9387C17.8647 18.8288 17.9998 18.6509 18.1229 18.5069C18.2459 18.363 18.2866 18.2608 18.369 18.096C18.4514 17.9312 18.4107 17.7873 18.3481 17.6643C18.2866 17.5401 17.7933 16.3272 17.5878 15.8339C17.389 15.356 17.1857 15.4197 17.0341 15.4131C16.8771 15.4067 16.7199 15.4038 16.5628 15.4043C16.4378 15.4075 16.3148 15.4365 16.2016 15.4894C16.0883 15.5424 15.9873 15.6181 15.9047 15.7119C15.6783 15.9591 15.0422 16.5546 15.0422 17.7675C15.0422 18.9805 15.9255 20.1527 16.0486 20.3175C16.1716 20.4823 17.7867 22.9708 20.2587 24.0387C20.8475 24.2925 21.3068 24.4441 21.6638 24.5583C22.2538 24.7462 22.7911 24.7187 23.2162 24.6561C23.6898 24.5858 24.6742 24.0606 24.8796 23.485C25.0851 22.9093 25.0851 22.416 25.0235 22.3127C24.962 22.2094 24.7961 22.1468 24.5511 22.0237Z" fill="#F5EFE6"/>
</g>
<rect x="0.25" y="0.25" width="39.5" height="39.5" stroke="url(#paint0_linear_1402_518)" stroke-width="0.5"/>
<defs>
<linearGradient id="paint0_linear_1402_518" x1="49" y1="-9" x2="-11.5" y2="50.5" gradientUnits="userSpaceOnUse">
<stop stop-color="#E6DBCC"/>
<stop offset="0.510417" stop-color="#E6DBCC" stop-opacity="0.1"/>
<stop offset="1" stop-color="#E6DBCC"/>
</linearGradient>
<clipPath id="clip0_1402_518">
<rect width="20" height="20" fill="white" transform="translate(10 10)"/>
</clipPath>
</defs>
</svg>
