<svg width="40" height="40" viewBox="0 0 40 40" fill="none" xmlns="http://www.w3.org/2000/svg">
<path d="M28.4 13H11.6C11.2286 13 10.8726 13.1475 10.61 13.4101C10.3475 13.6726 10.2 14.0287 10.2 14.4V25.6C10.2 25.9713 10.3475 26.3274 10.61 26.5899C10.8726 26.8525 11.2286 27 11.6 27H28.4C28.7713 27 29.1273 26.8525 29.3899 26.5899C29.6525 26.3274 29.8 25.9713 29.8 25.6V14.4C29.8 14.0287 29.6525 13.6726 29.3899 13.4101C29.1273 13.1475 28.7713 13 28.4 13ZM26.86 14.4L20 19.146L13.14 14.4H26.86ZM11.6 25.6V15.037L19.601 20.574C19.7181 20.6553 19.8573 20.6988 20 20.6988C20.1426 20.6988 20.2818 20.6553 20.399 20.574L28.4 15.037V25.6H11.6Z" fill="#F5EFE6"/>
<rect x="0.25" y="0.25" width="39.5" height="39.5" stroke="url(#paint0_linear_1402_523)" stroke-width="0.5"/>
<defs>
<linearGradient id="paint0_linear_1402_523" x1="49" y1="-9" x2="-11.5" y2="50.5" gradientUnits="userSpaceOnUse">
<stop stop-color="#E6DBCC"/>
<stop offset="0.510417" stop-color="#E6DBCC" stop-opacity="0.1"/>
<stop offset="1" stop-color="#E6DBCC"/>
</linearGradient>
</defs>
</svg>
